<svg preserveAspectRatio="none" overflow="visible" style="display: block;" width="52" height="58" viewBox="0 0 52 58" fill="none" xmlns="http://www.w3.org/2000/svg">
<g id="Hex &#195;&#173;cone">
<path id="Polygon" d="M26 0L48.5167 14.5V43.5L26 58L3.48334 43.5V14.5L26 0Z" fill="#0A1D3D"/>
<g id="Frame">
<path id="Vector" d="M26 32C27.6569 32 29 30.6569 29 29C29 27.3431 27.6569 26 26 26C24.3431 26 23 27.3431 23 29C23 30.6569 24.3431 32 26 32Z" stroke="white" stroke-width="1.5" stroke-linecap="round" stroke-linejoin="round"/>
<path id="Vector_2" d="M26 20V22.6M26 35.4V38M17 29H19.6M32.4 29H35M19.6 22.6L21.5 24.5M30.5 33.5L32.4 35.4M32.4 22.6L30.5 24.5M21.5 33.5L19.6 35.4" stroke="white" stroke-width="1.5" stroke-linecap="round" stroke-linejoin="round"/>
</g>
</g>
</svg>
