<svg preserveAspectRatio="none" overflow="visible" style="display: block;" width="26" height="26" viewBox="0 0 26 26" fill="none" xmlns="http://www.w3.org/2000/svg">
<g id="icon">
<path id="Vector" d="M3.79167 10.2917L5.41667 4.875H20.5833L22.2083 10.2917C22.2065 11.0266 21.9555 11.7392 21.4965 12.3132C21.0375 12.8871 20.3975 13.2886 19.681 13.452C18.9645 13.6154 18.2137 13.5312 17.5512 13.213C16.8888 12.8948 16.3537 12.3614 16.0333 11.7C15.7975 12.3131 15.3814 12.8404 14.8399 13.2123C14.2984 13.5841 13.6569 13.7832 13 13.7832C12.3431 13.7832 11.7016 13.5841 11.1601 13.2123C10.6186 12.8404 10.2025 12.3131 9.96667 11.7C9.64632 12.3614 9.11125 12.8948 8.44877 13.213C7.78629 13.5312 7.03552 13.6154 6.31898 13.452C5.60245 13.2886 4.96246 12.8871 4.50346 12.3132C4.04445 11.7392 3.79354 11.0266 3.79167 10.2917Z" stroke="#0D47A1" stroke-width="1.5" stroke-linecap="round" stroke-linejoin="round"/>
<path id="Vector_2" d="M5.41667 12.4583V21.6667H20.5833V12.4583" stroke="#0D47A1" stroke-width="1.5" stroke-linecap="round" stroke-linejoin="round"/>
<path id="Vector_3" d="M10.8333 21.6667V16.7917H15.1667V21.6667" stroke="#0D47A1" stroke-width="1.5" stroke-linecap="round" stroke-linejoin="round"/>
</g>
</svg>
